<?xml version="1.0" encoding="UTF-8" standalone="no"?>
<!DOCTYPE svg PUBLIC "-//W3C//DTD SVG 1.1//EN" "http://www.w3.org/Graphics/SVG/1.1/DTD/svg11.dtd">
<svg width="100%" height="100%" viewBox="0 0 432 77" version="1.1" xmlns="http://www.w3.org/2000/svg" xmlns:xlink="http://www.w3.org/1999/xlink" xml:space="preserve" xmlns:serif="http://www.serif.com/" style="fill-rule:evenodd;clip-rule:evenodd;stroke-linejoin:round;stroke-miterlimit:2;">
    <rect id="Artboard1" x="0" y="0" width="432" height="77" style="fill:none;"/>
    <clipPath id="_clip1">
        <rect id="Artboard11" serif:id="Artboard1" x="0" y="0" width="432" height="77"/>
    </clipPath>
    <g clip-path="url(#_clip1)">
        <g transform="matrix(0.193327,0,0,0.139706,-9.5504,-14.7442)">
            <g transform="matrix(496.567,0,0,687.158,69,570.647)">
                <path d="M0.244,-0.161C0.245,-0.159 0.246,-0.157 0.246,-0.155C0.246,-0.153 0.246,-0.151 0.247,-0.148C0.246,-0.148 0.246,-0.148 0.246,-0.148C0.246,-0.147 0.246,-0.147 0.245,-0.147C0.241,-0.15 0.238,-0.155 0.237,-0.162C0.234,-0.171 0.232,-0.18 0.23,-0.189C0.227,-0.198 0.224,-0.207 0.221,-0.216C0.219,-0.221 0.216,-0.225 0.213,-0.226C0.209,-0.227 0.203,-0.225 0.195,-0.22C0.189,-0.217 0.186,-0.214 0.185,-0.209C0.182,-0.202 0.179,-0.195 0.177,-0.188C0.175,-0.181 0.172,-0.173 0.169,-0.166C0.166,-0.157 0.163,-0.149 0.16,-0.14C0.156,-0.131 0.152,-0.121 0.147,-0.112C0.142,-0.099 0.137,-0.087 0.132,-0.075C0.127,-0.063 0.122,-0.051 0.117,-0.039C0.114,-0.033 0.112,-0.027 0.111,-0.022C0.109,-0.016 0.107,-0.01 0.104,-0.004C0.101,0.003 0.098,0.009 0.096,0.012C0.092,0.014 0.087,0.017 0.08,0.02L0.053,0.029C0.052,0.03 0.052,0.03 0.051,0.03C0.046,0.035 0.04,0.038 0.035,0.04C0.03,0.042 0.024,0.044 0.017,0.047C0.014,0.048 0.012,0.05 0.009,0.052C0.006,0.053 0.003,0.054 0,0.054C-0.001,0.055 -0.002,0.055 -0.004,0.056C-0.005,0.056 -0.006,0.056 -0.007,0.057C-0.01,0.06 -0.012,0.062 -0.014,0.063C-0.016,0.064 -0.018,0.064 -0.021,0.064C-0.022,0.063 -0.024,0.063 -0.026,0.064C-0.027,0.064 -0.029,0.064 -0.031,0.064C-0.039,0.064 -0.041,0.059 -0.038,0.049C-0.037,0.047 -0.036,0.045 -0.036,0.043C-0.036,0.041 -0.036,0.039 -0.035,0.037C-0.036,0.031 -0.035,0.025 -0.034,0.019C-0.033,0.013 -0.031,0.006 -0.028,-0.001C-0.021,-0.02 -0.015,-0.039 -0.009,-0.058C-0.007,-0.063 -0.006,-0.066 -0.007,-0.069C-0.008,-0.076 -0.007,-0.084 -0.003,-0.091C0.001,-0.102 0.005,-0.114 0.01,-0.126C0.014,-0.138 0.019,-0.15 0.024,-0.161C0.025,-0.162 0.025,-0.164 0.026,-0.165C0.027,-0.166 0.027,-0.168 0.027,-0.169C0.03,-0.176 0.032,-0.181 0.031,-0.182C0.03,-0.183 0.027,-0.184 0.02,-0.185C0.017,-0.186 0.015,-0.187 0.014,-0.188C0.013,-0.189 0.012,-0.191 0.012,-0.194C0.012,-0.195 0.011,-0.196 0.01,-0.197C0.009,-0.197 0.008,-0.198 0.007,-0.199C0.004,-0.201 0.002,-0.203 0.001,-0.204C0.002,-0.205 0.004,-0.205 0.006,-0.206C0.008,-0.206 0.01,-0.207 0.012,-0.208L0.039,-0.217C0.044,-0.218 0.049,-0.222 0.053,-0.228L0.065,-0.258C0.084,-0.311 0.107,-0.364 0.132,-0.416C0.14,-0.428 0.144,-0.437 0.143,-0.444C0.142,-0.45 0.139,-0.454 0.134,-0.457C0.128,-0.459 0.121,-0.459 0.112,-0.458C0.103,-0.457 0.095,-0.454 0.088,-0.45C0.073,-0.444 0.062,-0.446 0.057,-0.456C0.056,-0.457 0.055,-0.459 0.054,-0.462C0.053,-0.464 0.051,-0.466 0.05,-0.468C0.049,-0.47 0.047,-0.473 0.046,-0.477C0.046,-0.484 0.046,-0.492 0.046,-0.5C0.045,-0.508 0.046,-0.516 0.049,-0.525C0.05,-0.53 0.052,-0.534 0.055,-0.538C0.057,-0.542 0.059,-0.546 0.061,-0.551C0.062,-0.552 0.062,-0.554 0.063,-0.555C0.063,-0.556 0.064,-0.558 0.065,-0.559L0.088,-0.593C0.09,-0.596 0.093,-0.599 0.097,-0.601C0.101,-0.603 0.105,-0.605 0.108,-0.606L0.18,-0.624C0.204,-0.631 0.228,-0.636 0.252,-0.639C0.276,-0.642 0.3,-0.645 0.323,-0.648C0.34,-0.649 0.357,-0.65 0.374,-0.651C0.391,-0.651 0.406,-0.65 0.421,-0.648C0.428,-0.647 0.434,-0.647 0.441,-0.647C0.448,-0.646 0.454,-0.645 0.46,-0.644C0.49,-0.642 0.513,-0.632 0.53,-0.614C0.537,-0.605 0.543,-0.595 0.546,-0.584C0.549,-0.573 0.552,-0.56 0.553,-0.547C0.554,-0.532 0.553,-0.516 0.548,-0.499C0.543,-0.482 0.535,-0.465 0.526,-0.448C0.521,-0.439 0.516,-0.431 0.51,-0.423C0.504,-0.415 0.497,-0.407 0.49,-0.398C0.475,-0.382 0.459,-0.367 0.443,-0.352C0.426,-0.337 0.408,-0.323 0.389,-0.31C0.38,-0.305 0.373,-0.301 0.37,-0.298C0.366,-0.295 0.364,-0.291 0.363,-0.288C0.362,-0.284 0.363,-0.279 0.364,-0.274C0.365,-0.269 0.367,-0.261 0.368,-0.251C0.369,-0.246 0.369,-0.242 0.37,-0.238C0.371,-0.233 0.372,-0.229 0.373,-0.224L0.38,-0.2C0.381,-0.196 0.382,-0.192 0.383,-0.188C0.384,-0.184 0.384,-0.18 0.385,-0.175C0.386,-0.171 0.388,-0.167 0.389,-0.164C0.39,-0.161 0.39,-0.157 0.39,-0.152C0.391,-0.149 0.391,-0.147 0.391,-0.144L0.391,-0.136C0.39,-0.127 0.389,-0.117 0.388,-0.108C0.387,-0.098 0.387,-0.088 0.386,-0.079C0.385,-0.076 0.384,-0.074 0.384,-0.073C0.387,-0.07 0.389,-0.066 0.389,-0.062C0.388,-0.057 0.388,-0.053 0.387,-0.048L0.387,-0.046L0.394,0.008C0.395,0.011 0.396,0.014 0.395,0.017C0.394,0.019 0.392,0.022 0.387,0.026L0.369,0.044C0.36,0.051 0.353,0.052 0.348,0.047L0.324,0.016L0.317,0.001C0.312,-0.008 0.307,-0.018 0.3,-0.028C0.297,-0.031 0.293,-0.036 0.29,-0.043C0.29,-0.044 0.29,-0.044 0.289,-0.045C0.288,-0.045 0.288,-0.046 0.289,-0.047C0.291,-0.054 0.291,-0.059 0.289,-0.063C0.287,-0.066 0.284,-0.07 0.281,-0.075C0.278,-0.082 0.276,-0.088 0.273,-0.095C0.27,-0.101 0.267,-0.107 0.263,-0.113C0.262,-0.116 0.261,-0.12 0.26,-0.124C0.259,-0.127 0.258,-0.131 0.257,-0.134C0.256,-0.139 0.255,-0.144 0.253,-0.149C0.25,-0.153 0.248,-0.157 0.245,-0.162C0.244,-0.161 0.244,-0.161 0.244,-0.161ZM0.373,-0.358L0.392,-0.372C0.403,-0.381 0.414,-0.392 0.425,-0.404C0.435,-0.416 0.445,-0.428 0.454,-0.439C0.461,-0.448 0.466,-0.456 0.467,-0.463C0.468,-0.47 0.465,-0.475 0.458,-0.478C0.451,-0.483 0.443,-0.487 0.435,-0.49C0.426,-0.493 0.416,-0.494 0.405,-0.493C0.4,-0.493 0.396,-0.493 0.392,-0.493C0.387,-0.492 0.383,-0.492 0.378,-0.493C0.365,-0.494 0.351,-0.494 0.337,-0.493C0.322,-0.492 0.307,-0.49 0.292,-0.489C0.266,-0.482 0.246,-0.476 0.232,-0.471C0.217,-0.466 0.207,-0.461 0.2,-0.455C0.193,-0.449 0.189,-0.442 0.188,-0.433C0.187,-0.424 0.186,-0.412 0.186,-0.396L0.189,-0.375C0.19,-0.368 0.192,-0.363 0.195,-0.36C0.199,-0.351 0.201,-0.342 0.2,-0.332C0.201,-0.313 0.205,-0.301 0.212,-0.294C0.218,-0.287 0.226,-0.283 0.235,-0.284C0.244,-0.284 0.255,-0.287 0.267,-0.293C0.279,-0.298 0.291,-0.305 0.304,-0.314C0.317,-0.322 0.329,-0.33 0.341,-0.338C0.352,-0.346 0.363,-0.353 0.373,-0.358Z" style="fill:rgb(93,93,156);fill-rule:nonzero;"/>
            </g>
            <g transform="matrix(496.567,0,0,687.158,307.849,570.647)">
                <path d="M0.028,-0.256C0.028,-0.257 0.028,-0.258 0.027,-0.259C0.022,-0.268 0.017,-0.278 0.015,-0.289C0.012,-0.3 0.009,-0.311 0.008,-0.322C0.007,-0.331 0.007,-0.339 0.009,-0.347C0.011,-0.355 0.014,-0.363 0.019,-0.371C0.02,-0.374 0.023,-0.375 0.026,-0.376C0.03,-0.379 0.035,-0.383 0.04,-0.386C0.045,-0.389 0.05,-0.393 0.056,-0.396C0.065,-0.401 0.075,-0.403 0.088,-0.401C0.09,-0.401 0.093,-0.4 0.096,-0.398C0.099,-0.396 0.103,-0.394 0.107,-0.391C0.11,-0.388 0.114,-0.385 0.117,-0.382C0.119,-0.379 0.122,-0.378 0.123,-0.377C0.126,-0.374 0.13,-0.372 0.133,-0.369C0.136,-0.366 0.139,-0.364 0.142,-0.362C0.151,-0.355 0.157,-0.345 0.162,-0.332C0.163,-0.328 0.165,-0.324 0.166,-0.321C0.167,-0.317 0.169,-0.313 0.171,-0.31C0.172,-0.305 0.173,-0.301 0.174,-0.296C0.175,-0.291 0.176,-0.286 0.177,-0.281C0.178,-0.276 0.178,-0.272 0.178,-0.269C0.178,-0.265 0.179,-0.261 0.18,-0.257L0.181,-0.244C0.18,-0.238 0.18,-0.232 0.181,-0.227C0.182,-0.221 0.181,-0.215 0.18,-0.21C0.179,-0.207 0.179,-0.204 0.182,-0.201C0.184,-0.198 0.187,-0.197 0.191,-0.197C0.203,-0.198 0.214,-0.198 0.223,-0.198C0.232,-0.197 0.241,-0.197 0.25,-0.197C0.258,-0.197 0.267,-0.197 0.276,-0.198C0.284,-0.198 0.295,-0.199 0.307,-0.201L0.323,-0.209L0.33,-0.213C0.332,-0.21 0.332,-0.207 0.33,-0.204C0.329,-0.201 0.329,-0.199 0.332,-0.198C0.335,-0.197 0.335,-0.195 0.333,-0.193C0.326,-0.185 0.315,-0.179 0.301,-0.175C0.287,-0.17 0.272,-0.167 0.257,-0.166C0.241,-0.164 0.226,-0.163 0.211,-0.163L0.172,-0.162C0.168,-0.162 0.166,-0.161 0.166,-0.159C0.166,-0.158 0.165,-0.157 0.164,-0.154C0.163,-0.145 0.16,-0.137 0.156,-0.129C0.152,-0.121 0.148,-0.113 0.145,-0.104C0.142,-0.098 0.139,-0.093 0.136,-0.088C0.133,-0.083 0.129,-0.079 0.126,-0.074C0.124,-0.071 0.122,-0.068 0.12,-0.065C0.118,-0.062 0.115,-0.059 0.112,-0.057L0.105,-0.052C0.102,-0.051 0.1,-0.049 0.099,-0.046C0.09,-0.036 0.081,-0.03 0.071,-0.027C0.068,-0.027 0.065,-0.026 0.061,-0.023C0.054,-0.021 0.047,-0.02 0.04,-0.02C0.033,-0.02 0.027,-0.021 0.02,-0.022C0.011,-0.023 0.003,-0.027 -0.003,-0.033C-0.009,-0.038 -0.015,-0.045 -0.02,-0.054L-0.029,-0.081C-0.03,-0.09 -0.031,-0.099 -0.032,-0.109C-0.032,-0.117 -0.031,-0.127 -0.03,-0.136C-0.028,-0.154 -0.022,-0.172 -0.013,-0.191C-0.008,-0.202 -0.003,-0.213 0.004,-0.222C0.01,-0.231 0.017,-0.241 0.024,-0.25C0.025,-0.251 0.027,-0.253 0.028,-0.256ZM0.147,-0.275C0.149,-0.284 0.149,-0.292 0.146,-0.299C0.144,-0.31 0.142,-0.32 0.139,-0.331C0.136,-0.342 0.131,-0.35 0.125,-0.355C0.123,-0.357 0.121,-0.359 0.12,-0.362C0.118,-0.364 0.115,-0.366 0.112,-0.367C0.109,-0.37 0.106,-0.372 0.103,-0.374C0.1,-0.376 0.097,-0.378 0.094,-0.38C0.091,-0.383 0.087,-0.384 0.084,-0.383C0.08,-0.382 0.076,-0.38 0.072,-0.378C0.068,-0.375 0.064,-0.373 0.061,-0.37C0.058,-0.367 0.055,-0.364 0.053,-0.362C0.046,-0.353 0.043,-0.343 0.042,-0.332C0.041,-0.321 0.043,-0.31 0.046,-0.3C0.049,-0.289 0.053,-0.279 0.059,-0.27C0.065,-0.26 0.071,-0.252 0.077,-0.245C0.084,-0.231 0.093,-0.222 0.102,-0.217C0.111,-0.212 0.12,-0.211 0.128,-0.214C0.135,-0.217 0.141,-0.223 0.145,-0.234C0.149,-0.245 0.15,-0.258 0.147,-0.275ZM0.076,-0.147C0.071,-0.139 0.067,-0.132 0.065,-0.127C0.063,-0.121 0.06,-0.113 0.057,-0.104C0.056,-0.101 0.056,-0.099 0.056,-0.096L0.056,-0.088C0.055,-0.087 0.056,-0.086 0.057,-0.083C0.06,-0.077 0.063,-0.073 0.068,-0.071C0.069,-0.071 0.069,-0.071 0.07,-0.072L0.074,-0.075C0.083,-0.084 0.09,-0.094 0.096,-0.106C0.102,-0.116 0.108,-0.128 0.113,-0.139C0.116,-0.143 0.118,-0.147 0.119,-0.152C0.12,-0.156 0.122,-0.16 0.123,-0.163C0.112,-0.168 0.103,-0.169 0.096,-0.166C0.089,-0.162 0.083,-0.156 0.076,-0.147ZM0.18,-0.257C0.179,-0.258 0.179,-0.259 0.179,-0.259C0.179,-0.259 0.179,-0.258 0.18,-0.256L0.18,-0.257ZM0.181,-0.255C0.18,-0.255 0.18,-0.255 0.18,-0.256C0.181,-0.255 0.181,-0.255 0.181,-0.255Z" style="fill:rgb(93,93,156);fill-rule:nonzero;"/>
            </g>
            <g transform="matrix(496.567,0,0,687.158,438.943,570.647)">
                <path d="M-0.052,0.123C-0.048,0.119 -0.044,0.116 -0.041,0.113C-0.037,0.11 -0.033,0.106 -0.029,0.103C-0.031,0.102 -0.033,0.102 -0.034,0.103C-0.035,0.103 -0.038,0.104 -0.043,0.106L-0.043,0.103L-0.045,0.1C-0.046,0.101 -0.048,0.101 -0.049,0.101C-0.05,0.101 -0.051,0.102 -0.052,0.103C-0.055,0.104 -0.058,0.105 -0.061,0.106C-0.063,0.106 -0.066,0.106 -0.069,0.107C-0.07,0.108 -0.071,0.108 -0.072,0.108C-0.072,0.107 -0.073,0.106 -0.076,0.105C-0.075,0.104 -0.074,0.103 -0.073,0.1C-0.074,0.1 -0.076,0.1 -0.077,0.101C-0.078,0.101 -0.08,0.101 -0.081,0.101C-0.082,0.102 -0.084,0.103 -0.086,0.103C-0.094,0.106 -0.099,0.103 -0.101,0.095C-0.102,0.092 -0.102,0.089 -0.103,0.086C-0.103,0.083 -0.104,0.08 -0.105,0.077C-0.107,0.072 -0.108,0.068 -0.108,0.063L-0.108,0.047C-0.107,0.045 -0.107,0.043 -0.106,0.04C-0.105,0.037 -0.103,0.035 -0.102,0.032C-0.097,0.021 -0.089,0.011 -0.078,-0C-0.058,-0.019 -0.037,-0.035 -0.015,-0.048C-0.004,-0.055 0.004,-0.061 0.01,-0.066C0.015,-0.071 0.019,-0.077 0.021,-0.082C0.023,-0.087 0.024,-0.092 0.023,-0.098C0.022,-0.103 0.02,-0.11 0.019,-0.118C0.018,-0.129 0.017,-0.14 0.015,-0.15C0.012,-0.16 0.009,-0.17 0.006,-0.18C0.005,-0.182 0.005,-0.184 0.004,-0.186C0.003,-0.187 0.003,-0.189 0.003,-0.191C0.002,-0.195 0,-0.202 -0.001,-0.212C-0.002,-0.222 -0.003,-0.233 -0.004,-0.244C-0.005,-0.255 -0.005,-0.266 -0.006,-0.277C-0.006,-0.287 -0.005,-0.294 -0.004,-0.299C-0.003,-0.3 -0.002,-0.302 -0.002,-0.303C-0.002,-0.304 -0.001,-0.305 0,-0.306C0.001,-0.313 0.004,-0.318 0.009,-0.323C0.01,-0.324 0.012,-0.326 0.013,-0.329C0.014,-0.331 0.014,-0.333 0.013,-0.336L0.023,-0.352C0.024,-0.354 0.026,-0.356 0.028,-0.358C0.029,-0.359 0.031,-0.361 0.032,-0.364L0.046,-0.38C0.048,-0.382 0.05,-0.385 0.052,-0.388C0.055,-0.391 0.057,-0.394 0.061,-0.397C0.064,-0.4 0.067,-0.402 0.07,-0.405C0.071,-0.406 0.072,-0.407 0.074,-0.408C0.077,-0.409 0.08,-0.411 0.081,-0.413C0.084,-0.416 0.087,-0.417 0.089,-0.416C0.096,-0.411 0.101,-0.406 0.104,-0.401L0.106,-0.399C0.108,-0.398 0.11,-0.395 0.112,-0.39C0.114,-0.385 0.116,-0.379 0.117,-0.373C0.118,-0.367 0.119,-0.361 0.12,-0.355C0.121,-0.349 0.121,-0.344 0.121,-0.341C0.12,-0.338 0.12,-0.335 0.121,-0.333C0.12,-0.33 0.12,-0.327 0.119,-0.324C0.118,-0.321 0.117,-0.319 0.116,-0.316C0.114,-0.312 0.112,-0.308 0.11,-0.304C0.108,-0.299 0.106,-0.295 0.103,-0.292C0.1,-0.287 0.097,-0.285 0.094,-0.285C0.091,-0.284 0.087,-0.281 0.084,-0.277C0.083,-0.276 0.082,-0.274 0.081,-0.273C0.079,-0.272 0.078,-0.27 0.078,-0.267L0.078,-0.266C0.077,-0.265 0.077,-0.264 0.077,-0.264C0.072,-0.259 0.069,-0.255 0.066,-0.25C0.063,-0.245 0.06,-0.24 0.059,-0.233C0.057,-0.226 0.057,-0.22 0.058,-0.215C0.059,-0.21 0.062,-0.205 0.065,-0.2C0.068,-0.197 0.07,-0.192 0.072,-0.186L0.082,-0.149C0.083,-0.143 0.085,-0.138 0.087,-0.135C0.089,-0.132 0.09,-0.129 0.09,-0.125C0.09,-0.12 0.091,-0.117 0.092,-0.114C0.093,-0.108 0.097,-0.106 0.104,-0.108C0.11,-0.11 0.117,-0.113 0.126,-0.118C0.135,-0.123 0.143,-0.128 0.153,-0.133C0.162,-0.138 0.169,-0.142 0.176,-0.144C0.193,-0.157 0.21,-0.169 0.227,-0.183C0.244,-0.196 0.259,-0.21 0.273,-0.225L0.271,-0.251C0.27,-0.254 0.27,-0.257 0.27,-0.26C0.269,-0.263 0.269,-0.266 0.269,-0.271L0.267,-0.296C0.266,-0.305 0.266,-0.314 0.267,-0.323C0.268,-0.331 0.27,-0.339 0.272,-0.348C0.276,-0.361 0.282,-0.372 0.29,-0.381C0.297,-0.388 0.305,-0.395 0.312,-0.402C0.319,-0.408 0.326,-0.414 0.335,-0.42C0.336,-0.421 0.338,-0.423 0.341,-0.424C0.343,-0.424 0.346,-0.425 0.349,-0.426C0.352,-0.426 0.354,-0.426 0.357,-0.426C0.359,-0.425 0.361,-0.424 0.363,-0.422C0.366,-0.419 0.369,-0.418 0.373,-0.417C0.376,-0.416 0.38,-0.416 0.383,-0.416L0.397,-0.416C0.41,-0.415 0.421,-0.411 0.428,-0.402C0.435,-0.393 0.44,-0.384 0.442,-0.375C0.443,-0.37 0.443,-0.365 0.442,-0.36C0.44,-0.353 0.437,-0.346 0.432,-0.339C0.429,-0.334 0.425,-0.33 0.422,-0.325C0.419,-0.32 0.415,-0.316 0.411,-0.311C0.401,-0.299 0.39,-0.289 0.377,-0.28C0.375,-0.279 0.373,-0.279 0.372,-0.278C0.37,-0.277 0.368,-0.275 0.367,-0.274C0.362,-0.27 0.358,-0.266 0.353,-0.263C0.347,-0.259 0.342,-0.255 0.337,-0.251C0.338,-0.246 0.339,-0.24 0.343,-0.232C0.346,-0.224 0.349,-0.216 0.353,-0.207C0.357,-0.198 0.361,-0.19 0.366,-0.182C0.371,-0.174 0.375,-0.168 0.378,-0.164C0.381,-0.163 0.385,-0.165 0.39,-0.168C0.399,-0.171 0.409,-0.175 0.418,-0.18C0.427,-0.184 0.436,-0.188 0.445,-0.192L0.477,-0.204C0.497,-0.211 0.519,-0.216 0.542,-0.219C0.543,-0.219 0.545,-0.219 0.547,-0.22C0.548,-0.22 0.55,-0.22 0.551,-0.22L0.549,-0.205C0.54,-0.204 0.53,-0.201 0.519,-0.197C0.508,-0.192 0.498,-0.188 0.489,-0.185C0.478,-0.181 0.467,-0.176 0.455,-0.169C0.442,-0.162 0.431,-0.157 0.42,-0.154C0.417,-0.152 0.413,-0.15 0.41,-0.148C0.406,-0.146 0.402,-0.144 0.399,-0.141C0.394,-0.14 0.392,-0.137 0.393,-0.131C0.394,-0.128 0.395,-0.125 0.396,-0.123C0.397,-0.12 0.398,-0.118 0.399,-0.116L0.402,-0.104C0.405,-0.098 0.408,-0.092 0.409,-0.085C0.41,-0.078 0.41,-0.071 0.411,-0.064C0.412,-0.055 0.413,-0.045 0.413,-0.036C0.413,-0.026 0.412,-0.016 0.409,-0.006C0.406,0.005 0.402,0.016 0.395,0.027C0.394,0.03 0.391,0.032 0.387,0.035C0.383,0.038 0.379,0.04 0.376,0.042C0.372,0.043 0.368,0.046 0.365,0.049C0.36,0.052 0.356,0.054 0.352,0.057C0.348,0.059 0.344,0.062 0.341,0.065L0.333,0.069C0.331,0.07 0.329,0.072 0.328,0.073C0.327,0.074 0.325,0.075 0.324,0.077C0.317,0.084 0.309,0.09 0.3,0.093C0.296,0.095 0.293,0.096 0.29,0.097C0.281,0.102 0.273,0.103 0.265,0.102C0.257,0.101 0.249,0.098 0.241,0.093C0.236,0.09 0.232,0.088 0.229,0.085C0.226,0.082 0.222,0.078 0.219,0.075C0.214,0.069 0.208,0.064 0.201,0.06L0.198,0.058C0.195,0.055 0.192,0.051 0.19,0.048C0.187,0.045 0.186,0.04 0.187,0.035C0.19,0.018 0.195,0.002 0.202,-0.013C0.208,-0.028 0.217,-0.041 0.23,-0.054C0.238,-0.062 0.246,-0.07 0.255,-0.078C0.264,-0.085 0.273,-0.092 0.282,-0.099C0.287,-0.104 0.293,-0.108 0.299,-0.111C0.303,-0.114 0.304,-0.118 0.303,-0.123L0.303,-0.128C0.303,-0.129 0.302,-0.131 0.301,-0.133C0.298,-0.144 0.296,-0.154 0.293,-0.165C0.29,-0.176 0.287,-0.187 0.284,-0.198L0.278,-0.186C0.275,-0.183 0.273,-0.179 0.272,-0.176C0.27,-0.173 0.268,-0.169 0.265,-0.166L0.252,-0.154L0.231,-0.136L0.227,-0.132C0.222,-0.129 0.216,-0.125 0.211,-0.121C0.206,-0.116 0.2,-0.112 0.195,-0.108L0.184,-0.099C0.179,-0.095 0.172,-0.091 0.163,-0.087C0.154,-0.082 0.146,-0.077 0.137,-0.072C0.128,-0.067 0.121,-0.061 0.114,-0.055C0.107,-0.049 0.103,-0.043 0.102,-0.036L0.102,-0.024C0.102,-0.021 0.102,-0.019 0.101,-0.017C0.1,-0.015 0.099,-0.012 0.098,-0.01C0.097,-0.007 0.095,-0.002 0.092,0.003C0.092,0.004 0.092,0.006 0.091,0.007C0.09,0.008 0.09,0.01 0.09,0.011C0.089,0.012 0.088,0.013 0.088,0.014L0.088,0.015C0.085,0.018 0.084,0.021 0.083,0.026C0.082,0.03 0.081,0.033 0.08,0.036C0.079,0.039 0.077,0.04 0.074,0.04L0.071,0.042C0.068,0.045 0.066,0.047 0.063,0.05C0.06,0.052 0.058,0.055 0.055,0.058C0.053,0.061 0.05,0.064 0.046,0.068C0.041,0.071 0.037,0.075 0.032,0.079C0.027,0.082 0.022,0.086 0.017,0.089C0.012,0.092 0.009,0.095 0.007,0.096L-0.003,0.104C-0.006,0.107 -0.009,0.108 -0.013,0.109C-0.017,0.11 -0.021,0.111 -0.024,0.112L-0.027,0.114C-0.034,0.119 -0.04,0.121 -0.047,0.121C-0.048,0.121 -0.049,0.122 -0.052,0.123ZM-0.04,0.01C-0.042,0.011 -0.044,0.012 -0.046,0.013C-0.047,0.014 -0.049,0.014 -0.051,0.014C-0.058,0.015 -0.064,0.019 -0.069,0.026C-0.072,0.031 -0.076,0.034 -0.081,0.036C-0.087,0.039 -0.091,0.043 -0.094,0.047C-0.095,0.05 -0.096,0.053 -0.097,0.056C-0.098,0.058 -0.099,0.06 -0.1,0.062C-0.103,0.068 -0.103,0.072 -0.1,0.075L-0.091,0.091C-0.088,0.095 -0.085,0.096 -0.08,0.093L-0.067,0.085L-0.052,0.075C-0.041,0.07 -0.032,0.062 -0.025,0.053C-0.022,0.05 -0.021,0.048 -0.02,0.047C-0.013,0.04 -0.008,0.032 -0.003,0.024C0,0.02 0.003,0.016 0.004,0.011C0.005,0.006 0.007,0.002 0.01,-0.003C0.011,-0.003 0.012,-0.004 0.012,-0.006C0.013,-0.014 0.012,-0.018 0.008,-0.018C0.004,-0.018 -0.001,-0.016 -0.007,-0.013C-0.013,-0.01 -0.019,-0.006 -0.026,-0.001C-0.032,0.005 -0.037,0.008 -0.04,0.01ZM0.304,-0.073C0.3,-0.07 0.297,-0.067 0.294,-0.064C0.291,-0.061 0.288,-0.059 0.285,-0.056C0.27,-0.045 0.258,-0.03 0.249,-0.013L0.245,-0.008C0.24,-0.003 0.236,0.003 0.235,0.01C0.233,0.017 0.232,0.024 0.231,0.031C0.23,0.036 0.231,0.04 0.233,0.043C0.234,0.045 0.238,0.046 0.244,0.047C0.247,0.048 0.249,0.049 0.251,0.048C0.252,0.047 0.254,0.046 0.255,0.045C0.264,0.039 0.272,0.032 0.278,0.024C0.284,0.016 0.289,0.007 0.292,-0.003C0.297,-0.013 0.3,-0.023 0.302,-0.034C0.303,-0.044 0.304,-0.054 0.305,-0.065C0.305,-0.068 0.305,-0.07 0.304,-0.073ZM0.322,-0.296C0.324,-0.297 0.326,-0.298 0.327,-0.298C0.328,-0.298 0.33,-0.298 0.331,-0.299L0.364,-0.328C0.368,-0.331 0.372,-0.335 0.375,-0.339C0.378,-0.343 0.38,-0.347 0.383,-0.352C0.388,-0.357 0.389,-0.365 0.386,-0.374C0.384,-0.378 0.381,-0.379 0.377,-0.378C0.366,-0.373 0.359,-0.367 0.354,-0.358C0.35,-0.355 0.347,-0.352 0.345,-0.347C0.34,-0.339 0.335,-0.331 0.331,-0.323C0.327,-0.315 0.324,-0.306 0.322,-0.296Z" style="fill:rgb(93,93,156);fill-rule:nonzero;"/>
            </g>
            <g transform="matrix(496.567,0,0,687.158,680.274,570.647)">
                <path d="M0.046,-0.316C0.049,-0.315 0.051,-0.314 0.052,-0.315L0.053,-0.316C0.054,-0.318 0.056,-0.319 0.057,-0.32C0.058,-0.321 0.06,-0.322 0.061,-0.323C0.064,-0.324 0.067,-0.325 0.072,-0.327C0.076,-0.329 0.08,-0.331 0.085,-0.333C0.089,-0.335 0.093,-0.337 0.097,-0.338C0.101,-0.339 0.104,-0.338 0.107,-0.337C0.108,-0.335 0.111,-0.333 0.115,-0.331C0.119,-0.328 0.122,-0.326 0.124,-0.324C0.128,-0.319 0.129,-0.311 0.126,-0.302L0.105,-0.261L0.1,-0.246C0.098,-0.241 0.096,-0.236 0.094,-0.231C0.092,-0.226 0.09,-0.221 0.087,-0.216C0.086,-0.213 0.086,-0.212 0.087,-0.215L0.098,-0.232C0.099,-0.235 0.1,-0.235 0.099,-0.232C0.099,-0.231 0.099,-0.229 0.098,-0.228C0.097,-0.227 0.097,-0.225 0.096,-0.224L0.089,-0.206C0.088,-0.204 0.088,-0.202 0.088,-0.2C0.087,-0.198 0.087,-0.195 0.087,-0.19C0.087,-0.187 0.087,-0.183 0.087,-0.176C0.086,-0.169 0.086,-0.162 0.085,-0.155C0.084,-0.147 0.084,-0.14 0.084,-0.133L0.084,-0.12C0.085,-0.117 0.086,-0.114 0.088,-0.112C0.089,-0.109 0.091,-0.107 0.092,-0.105C0.094,-0.104 0.096,-0.102 0.099,-0.101C0.101,-0.1 0.104,-0.098 0.107,-0.097C0.11,-0.095 0.112,-0.094 0.115,-0.095C0.117,-0.095 0.12,-0.095 0.123,-0.096C0.144,-0.103 0.158,-0.11 0.167,-0.116C0.176,-0.121 0.182,-0.127 0.187,-0.134C0.191,-0.141 0.195,-0.148 0.2,-0.157C0.204,-0.165 0.212,-0.175 0.224,-0.188C0.229,-0.195 0.233,-0.201 0.238,-0.208C0.243,-0.214 0.246,-0.221 0.249,-0.229C0.249,-0.23 0.249,-0.23 0.25,-0.231C0.25,-0.231 0.251,-0.232 0.252,-0.235C0.253,-0.232 0.254,-0.23 0.254,-0.227C0.253,-0.224 0.253,-0.222 0.253,-0.219C0.252,-0.216 0.253,-0.214 0.254,-0.212C0.255,-0.21 0.257,-0.209 0.26,-0.208C0.255,-0.199 0.25,-0.188 0.245,-0.177C0.24,-0.166 0.235,-0.155 0.23,-0.145C0.225,-0.134 0.219,-0.125 0.213,-0.116C0.206,-0.107 0.199,-0.1 0.19,-0.095C0.187,-0.092 0.182,-0.086 0.173,-0.079C0.164,-0.071 0.154,-0.063 0.142,-0.056C0.13,-0.049 0.117,-0.043 0.104,-0.039C0.091,-0.035 0.079,-0.035 0.068,-0.039C0.061,-0.036 0.054,-0.037 0.047,-0.042C0.04,-0.047 0.033,-0.051 0.026,-0.054C0.017,-0.058 0.007,-0.065 -0.003,-0.076C-0.006,-0.083 -0.008,-0.089 -0.01,-0.096C-0.012,-0.103 -0.013,-0.109 -0.013,-0.116C-0.014,-0.119 -0.015,-0.123 -0.015,-0.126L-0.015,-0.134C-0.014,-0.14 -0.013,-0.148 -0.013,-0.157C-0.013,-0.166 -0.012,-0.173 -0.01,-0.177C-0.009,-0.18 -0.009,-0.182 -0.008,-0.185C-0.007,-0.187 -0.007,-0.19 -0.007,-0.193C-0.006,-0.194 -0.005,-0.195 -0.005,-0.197C-0.005,-0.198 -0.003,-0.199 0,-0.2C0.001,-0.2 0.001,-0.201 0.002,-0.202C0.002,-0.203 0.002,-0.204 0.003,-0.205C0.006,-0.208 0.008,-0.212 0.009,-0.215C0.01,-0.218 0.011,-0.222 0.014,-0.225C0.011,-0.222 0.008,-0.219 0.005,-0.217C-0,-0.213 -0,-0.215 0.005,-0.224C0.009,-0.234 0.014,-0.244 0.022,-0.254C0.029,-0.264 0.034,-0.273 0.037,-0.28C0.037,-0.281 0.037,-0.282 0.038,-0.283C0.038,-0.284 0.038,-0.284 0.039,-0.285C0.04,-0.288 0.042,-0.291 0.043,-0.294C0.044,-0.296 0.044,-0.299 0.043,-0.302C0.042,-0.305 0.043,-0.31 0.046,-0.316ZM0.15,-0.432C0.149,-0.431 0.148,-0.429 0.147,-0.428C0.146,-0.427 0.145,-0.425 0.144,-0.424C0.143,-0.423 0.142,-0.421 0.141,-0.42C0.14,-0.419 0.14,-0.417 0.139,-0.415C0.139,-0.413 0.138,-0.411 0.137,-0.41L0.127,-0.398C0.126,-0.397 0.124,-0.395 0.121,-0.394C0.118,-0.392 0.115,-0.391 0.112,-0.39C0.11,-0.391 0.108,-0.39 0.105,-0.387C0.1,-0.384 0.096,-0.383 0.091,-0.386C0.089,-0.387 0.086,-0.388 0.083,-0.388C0.078,-0.388 0.075,-0.388 0.072,-0.389L0.075,-0.393C0.075,-0.394 0.075,-0.396 0.076,-0.398C0.077,-0.399 0.077,-0.401 0.078,-0.403L0.085,-0.416C0.085,-0.417 0.086,-0.418 0.087,-0.419C0.088,-0.42 0.088,-0.42 0.088,-0.421C0.088,-0.424 0.089,-0.427 0.091,-0.43C0.093,-0.432 0.095,-0.435 0.096,-0.438L0.102,-0.447C0.105,-0.45 0.107,-0.451 0.108,-0.451C0.11,-0.452 0.112,-0.452 0.113,-0.451C0.113,-0.449 0.114,-0.449 0.117,-0.45C0.119,-0.451 0.12,-0.452 0.121,-0.451C0.123,-0.45 0.125,-0.449 0.128,-0.449C0.13,-0.448 0.132,-0.448 0.134,-0.447C0.141,-0.444 0.146,-0.439 0.15,-0.432Z" style="fill:rgb(93,93,156);fill-rule:nonzero;"/>
            </g>
            <g transform="matrix(496.567,0,0,687.158,875.922,570.647)">
                <path d="M0.184,-0.447C0.189,-0.454 0.194,-0.46 0.199,-0.466C0.204,-0.472 0.209,-0.478 0.214,-0.485L0.229,-0.505C0.236,-0.516 0.245,-0.524 0.254,-0.53C0.263,-0.535 0.272,-0.54 0.282,-0.543C0.285,-0.544 0.289,-0.544 0.293,-0.543C0.296,-0.542 0.299,-0.54 0.302,-0.539C0.307,-0.537 0.311,-0.536 0.316,-0.535C0.32,-0.534 0.325,-0.534 0.331,-0.535C0.344,-0.537 0.351,-0.535 0.354,-0.528C0.354,-0.526 0.354,-0.524 0.353,-0.521C0.352,-0.518 0.352,-0.516 0.353,-0.515C0.354,-0.512 0.354,-0.508 0.354,-0.505C0.353,-0.502 0.351,-0.498 0.348,-0.493C0.347,-0.492 0.347,-0.491 0.347,-0.488C0.347,-0.482 0.347,-0.479 0.348,-0.478C0.348,-0.476 0.348,-0.476 0.348,-0.475C0.348,-0.474 0.348,-0.474 0.347,-0.473C0.346,-0.472 0.345,-0.468 0.342,-0.462C0.339,-0.457 0.338,-0.452 0.337,-0.447C0.335,-0.442 0.334,-0.437 0.332,-0.432C0.32,-0.402 0.314,-0.382 0.313,-0.373C0.312,-0.363 0.314,-0.36 0.32,-0.363C0.326,-0.366 0.334,-0.374 0.344,-0.386C0.354,-0.398 0.364,-0.411 0.374,-0.424C0.377,-0.433 0.384,-0.443 0.394,-0.453C0.401,-0.463 0.409,-0.473 0.417,-0.482C0.424,-0.491 0.432,-0.501 0.439,-0.512C0.463,-0.543 0.49,-0.569 0.519,-0.59C0.524,-0.593 0.53,-0.597 0.535,-0.602C0.54,-0.606 0.545,-0.607 0.55,-0.606C0.561,-0.605 0.57,-0.601 0.577,-0.595C0.584,-0.588 0.59,-0.581 0.594,-0.574C0.597,-0.573 0.598,-0.572 0.598,-0.572C0.605,-0.571 0.61,-0.567 0.611,-0.561C0.612,-0.555 0.612,-0.549 0.612,-0.542C0.611,-0.541 0.611,-0.539 0.61,-0.538C0.609,-0.537 0.609,-0.535 0.609,-0.534C0.602,-0.519 0.596,-0.505 0.591,-0.492C0.585,-0.478 0.581,-0.464 0.579,-0.451C0.578,-0.444 0.577,-0.436 0.576,-0.43C0.575,-0.423 0.575,-0.416 0.574,-0.409C0.573,-0.402 0.572,-0.395 0.571,-0.388C0.57,-0.381 0.569,-0.373 0.568,-0.366C0.567,-0.359 0.566,-0.353 0.565,-0.347C0.564,-0.34 0.56,-0.334 0.555,-0.327C0.555,-0.326 0.555,-0.326 0.555,-0.326C0.554,-0.325 0.554,-0.324 0.555,-0.323C0.558,-0.32 0.559,-0.316 0.556,-0.313C0.553,-0.31 0.55,-0.306 0.549,-0.303C0.548,-0.302 0.548,-0.3 0.547,-0.298C0.546,-0.296 0.547,-0.294 0.548,-0.293C0.549,-0.288 0.55,-0.282 0.549,-0.277C0.548,-0.272 0.546,-0.266 0.541,-0.259C0.541,-0.258 0.541,-0.258 0.541,-0.257C0.54,-0.256 0.54,-0.254 0.54,-0.253L0.533,-0.228C0.532,-0.228 0.534,-0.229 0.538,-0.231C0.537,-0.224 0.533,-0.217 0.528,-0.211C0.522,-0.205 0.52,-0.199 0.523,-0.192C0.528,-0.192 0.53,-0.187 0.527,-0.176C0.524,-0.166 0.522,-0.156 0.521,-0.147C0.519,-0.137 0.516,-0.127 0.511,-0.116C0.512,-0.115 0.512,-0.115 0.512,-0.115C0.511,-0.114 0.511,-0.114 0.512,-0.113C0.515,-0.108 0.514,-0.102 0.511,-0.096C0.508,-0.089 0.507,-0.083 0.508,-0.076C0.509,-0.072 0.508,-0.068 0.507,-0.063C0.505,-0.058 0.505,-0.053 0.508,-0.048C0.508,-0.042 0.504,-0.035 0.497,-0.028C0.496,-0.026 0.494,-0.024 0.492,-0.023C0.49,-0.021 0.488,-0.019 0.486,-0.017C0.483,-0.01 0.48,-0.005 0.479,-0.004C0.477,-0.003 0.473,-0.002 0.466,-0.001C0.465,-0.001 0.463,-0.001 0.462,-0.001C0.46,-0 0.457,0 0.454,0.001C0.446,0.002 0.441,0.001 0.439,-0.003C0.438,-0.004 0.436,-0.006 0.431,-0.007C0.424,-0.008 0.42,-0.012 0.418,-0.017C0.416,-0.022 0.417,-0.028 0.42,-0.035C0.425,-0.053 0.429,-0.07 0.432,-0.087C0.434,-0.103 0.436,-0.12 0.439,-0.137L0.446,-0.163C0.448,-0.169 0.45,-0.175 0.452,-0.182C0.453,-0.189 0.456,-0.196 0.459,-0.203C0.459,-0.201 0.459,-0.199 0.458,-0.197C0.457,-0.194 0.457,-0.192 0.457,-0.189C0.459,-0.19 0.46,-0.191 0.461,-0.191C0.462,-0.194 0.464,-0.198 0.465,-0.202C0.466,-0.205 0.466,-0.209 0.467,-0.213C0.468,-0.222 0.471,-0.232 0.474,-0.241C0.477,-0.249 0.478,-0.258 0.477,-0.267C0.476,-0.268 0.476,-0.27 0.477,-0.271C0.482,-0.276 0.483,-0.281 0.482,-0.286C0.481,-0.291 0.482,-0.296 0.486,-0.301C0.487,-0.302 0.488,-0.304 0.488,-0.306C0.488,-0.307 0.488,-0.309 0.489,-0.31C0.487,-0.32 0.49,-0.331 0.498,-0.343L0.498,-0.348L0.497,-0.349L0.478,-0.304L0.475,-0.304C0.479,-0.326 0.482,-0.343 0.484,-0.355C0.485,-0.367 0.485,-0.374 0.482,-0.375C0.478,-0.376 0.473,-0.371 0.464,-0.36C0.455,-0.349 0.443,-0.332 0.426,-0.308C0.425,-0.309 0.424,-0.31 0.424,-0.311C0.423,-0.31 0.422,-0.31 0.422,-0.31L0.421,-0.31C0.421,-0.309 0.421,-0.307 0.42,-0.306C0.419,-0.304 0.419,-0.302 0.418,-0.301C0.415,-0.294 0.413,-0.289 0.41,-0.286C0.407,-0.283 0.402,-0.279 0.395,-0.275C0.392,-0.274 0.39,-0.272 0.39,-0.269C0.387,-0.267 0.386,-0.265 0.385,-0.263C0.384,-0.261 0.382,-0.259 0.381,-0.257C0.378,-0.249 0.373,-0.238 0.364,-0.224C0.355,-0.21 0.346,-0.195 0.336,-0.18C0.326,-0.165 0.316,-0.15 0.307,-0.136C0.298,-0.122 0.291,-0.111 0.286,-0.103C0.282,-0.096 0.277,-0.09 0.272,-0.085C0.266,-0.08 0.259,-0.075 0.252,-0.068L0.252,-0.076C0.252,-0.078 0.253,-0.08 0.254,-0.082L0.252,-0.082C0.25,-0.079 0.248,-0.075 0.246,-0.072C0.243,-0.069 0.241,-0.065 0.238,-0.062C0.238,-0.062 0.237,-0.063 0.236,-0.064C0.233,-0.057 0.229,-0.052 0.224,-0.049C0.219,-0.046 0.214,-0.044 0.209,-0.043C0.19,-0.036 0.172,-0.035 0.157,-0.04C0.152,-0.041 0.146,-0.043 0.141,-0.044C0.135,-0.045 0.13,-0.048 0.126,-0.051C0.123,-0.054 0.121,-0.056 0.121,-0.057C0.12,-0.058 0.122,-0.061 0.125,-0.067C0.13,-0.075 0.135,-0.083 0.14,-0.091C0.145,-0.098 0.15,-0.106 0.155,-0.113C0.16,-0.121 0.165,-0.128 0.168,-0.135C0.171,-0.142 0.172,-0.149 0.171,-0.156C0.174,-0.175 0.179,-0.194 0.184,-0.213C0.189,-0.232 0.195,-0.249 0.2,-0.266C0.205,-0.282 0.208,-0.296 0.211,-0.308C0.214,-0.319 0.215,-0.327 0.214,-0.33C0.213,-0.333 0.209,-0.33 0.203,-0.323C0.196,-0.316 0.186,-0.301 0.173,-0.28C0.168,-0.272 0.163,-0.264 0.158,-0.255C0.153,-0.246 0.146,-0.238 0.139,-0.231C0.131,-0.214 0.121,-0.195 0.108,-0.174C0.095,-0.153 0.083,-0.132 0.07,-0.111C0.057,-0.089 0.046,-0.067 0.036,-0.046C0.025,-0.025 0.019,-0.005 0.016,0.014C0.015,0.017 0.014,0.021 0.014,0.025C0.012,0.028 0.011,0.032 0.009,0.036C0.004,0.044 -0.002,0.046 -0.007,0.042C-0.01,0.041 -0.012,0.041 -0.012,0.04C-0.015,0.034 -0.018,0.03 -0.023,0.029C-0.028,0.027 -0.033,0.025 -0.04,0.024C-0.044,0.023 -0.047,0.022 -0.05,0.02C-0.053,0.018 -0.056,0.016 -0.059,0.015C-0.06,0.014 -0.06,0.013 -0.06,0.012C-0.059,0.01 -0.059,0.008 -0.058,0.007C-0.049,-0.01 -0.042,-0.027 -0.037,-0.043C-0.032,-0.059 -0.027,-0.075 -0.023,-0.092C-0.022,-0.098 -0.021,-0.104 -0.02,-0.111C-0.019,-0.117 -0.018,-0.123 -0.015,-0.13C-0.014,-0.134 -0.012,-0.14 -0.01,-0.149L0.011,-0.201C0.014,-0.209 0.016,-0.215 0.017,-0.219L0.029,-0.267C0.033,-0.282 0.037,-0.298 0.041,-0.314C0.044,-0.329 0.048,-0.345 0.053,-0.36C0.054,-0.363 0.055,-0.367 0.056,-0.37C0.057,-0.373 0.057,-0.377 0.057,-0.38C0.058,-0.391 0.06,-0.403 0.063,-0.415C0.066,-0.426 0.07,-0.438 0.075,-0.45C0.076,-0.453 0.078,-0.457 0.079,-0.461C0.08,-0.465 0.081,-0.469 0.083,-0.473C0.085,-0.48 0.088,-0.487 0.091,-0.495C0.094,-0.502 0.098,-0.505 0.103,-0.503C0.106,-0.5 0.109,-0.498 0.112,-0.496C0.115,-0.494 0.117,-0.492 0.12,-0.489C0.121,-0.487 0.122,-0.485 0.122,-0.482C0.122,-0.479 0.122,-0.476 0.123,-0.473C0.122,-0.463 0.12,-0.453 0.118,-0.443C0.115,-0.433 0.112,-0.423 0.109,-0.413C0.105,-0.394 0.104,-0.382 0.106,-0.376C0.107,-0.369 0.111,-0.367 0.116,-0.369C0.121,-0.37 0.127,-0.375 0.134,-0.382C0.141,-0.389 0.147,-0.397 0.154,-0.406C0.161,-0.415 0.167,-0.423 0.173,-0.431C0.178,-0.438 0.182,-0.444 0.184,-0.447ZM0.379,-0.403C0.387,-0.406 0.392,-0.41 0.394,-0.416C0.394,-0.419 0.395,-0.421 0.398,-0.424C0.405,-0.431 0.411,-0.439 0.415,-0.448C0.419,-0.457 0.424,-0.465 0.43,-0.474C0.427,-0.471 0.423,-0.467 0.418,-0.461C0.413,-0.454 0.407,-0.447 0.402,-0.44C0.397,-0.433 0.392,-0.426 0.388,-0.419C0.383,-0.412 0.38,-0.406 0.379,-0.403ZM0.289,-0.274C0.292,-0.276 0.294,-0.278 0.296,-0.281C0.299,-0.284 0.301,-0.288 0.304,-0.293C0.306,-0.297 0.308,-0.301 0.311,-0.306C0.314,-0.313 0.318,-0.32 0.323,-0.327C0.327,-0.334 0.333,-0.34 0.34,-0.346C0.344,-0.351 0.346,-0.356 0.346,-0.361C0.342,-0.358 0.337,-0.353 0.332,-0.346C0.327,-0.339 0.321,-0.331 0.316,-0.322C0.31,-0.313 0.305,-0.305 0.3,-0.296C0.295,-0.287 0.292,-0.28 0.289,-0.274ZM0.157,-0.086L0.159,-0.086L0.164,-0.095L0.164,-0.1C0.163,-0.098 0.162,-0.096 0.161,-0.096C0.16,-0.094 0.159,-0.094 0.158,-0.093C0.158,-0.09 0.158,-0.087 0.157,-0.086Z" style="fill:rgb(93,93,156);fill-rule:nonzero;"/>
            </g>
            <g transform="matrix(496.567,0,0,687.158,1159.46,570.647)">
                <path d="M0.098,-0.243C0.097,-0.24 0.096,-0.238 0.095,-0.236C0.094,-0.234 0.093,-0.231 0.093,-0.228C0.093,-0.226 0.092,-0.224 0.089,-0.223C0.087,-0.221 0.086,-0.219 0.086,-0.218C0.085,-0.215 0.084,-0.213 0.081,-0.212C0.08,-0.211 0.079,-0.209 0.078,-0.204C0.08,-0.204 0.081,-0.204 0.082,-0.203L0.082,-0.202L0.075,-0.202C0.076,-0.204 0.076,-0.207 0.076,-0.21L0.074,-0.21L0.071,-0.189C0.074,-0.188 0.075,-0.187 0.075,-0.187C0.076,-0.184 0.076,-0.18 0.076,-0.177L0.076,-0.167C0.076,-0.162 0.077,-0.156 0.08,-0.149C0.081,-0.147 0.084,-0.142 0.087,-0.134C0.09,-0.126 0.093,-0.121 0.094,-0.119C0.101,-0.112 0.109,-0.105 0.117,-0.098C0.125,-0.091 0.133,-0.087 0.141,-0.086C0.142,-0.086 0.145,-0.086 0.149,-0.087C0.152,-0.087 0.156,-0.087 0.161,-0.088C0.165,-0.089 0.169,-0.089 0.173,-0.09C0.176,-0.091 0.179,-0.091 0.18,-0.091C0.203,-0.098 0.226,-0.11 0.249,-0.128C0.258,-0.135 0.266,-0.141 0.274,-0.149C0.282,-0.156 0.29,-0.163 0.299,-0.17L0.302,-0.173L0.32,-0.193C0.325,-0.198 0.331,-0.204 0.336,-0.21C0.341,-0.215 0.345,-0.221 0.35,-0.228C0.351,-0.231 0.353,-0.233 0.355,-0.235C0.356,-0.237 0.359,-0.239 0.362,-0.24C0.361,-0.235 0.36,-0.231 0.359,-0.227C0.358,-0.223 0.356,-0.219 0.354,-0.215C0.353,-0.212 0.351,-0.209 0.349,-0.207C0.346,-0.204 0.343,-0.2 0.341,-0.197C0.338,-0.194 0.336,-0.19 0.334,-0.186L0.324,-0.174L0.32,-0.168L0.328,-0.171C0.327,-0.168 0.326,-0.166 0.325,-0.165C0.323,-0.164 0.322,-0.162 0.321,-0.159C0.322,-0.158 0.322,-0.158 0.322,-0.158C0.322,-0.157 0.323,-0.157 0.324,-0.156C0.323,-0.153 0.321,-0.151 0.32,-0.15C0.318,-0.148 0.316,-0.146 0.314,-0.144C0.308,-0.139 0.302,-0.133 0.297,-0.127C0.292,-0.122 0.288,-0.117 0.283,-0.113C0.278,-0.109 0.273,-0.105 0.268,-0.101C0.265,-0.099 0.263,-0.097 0.261,-0.095C0.259,-0.093 0.257,-0.091 0.254,-0.09L0.242,-0.082C0.239,-0.081 0.236,-0.079 0.233,-0.078C0.23,-0.076 0.227,-0.074 0.224,-0.072C0.213,-0.065 0.202,-0.061 0.192,-0.059L0.183,-0.056C0.172,-0.053 0.16,-0.05 0.147,-0.049C0.144,-0.048 0.138,-0.049 0.13,-0.05C0.121,-0.051 0.113,-0.052 0.104,-0.054C0.094,-0.055 0.086,-0.057 0.078,-0.059C0.07,-0.06 0.064,-0.062 0.061,-0.063C0.044,-0.07 0.032,-0.078 0.025,-0.086C0.018,-0.093 0.011,-0.101 0.003,-0.108C-0.003,-0.113 -0.008,-0.12 -0.011,-0.129C-0.014,-0.136 -0.015,-0.142 -0.016,-0.15C-0.017,-0.157 -0.017,-0.164 -0.018,-0.171C-0.018,-0.186 -0.016,-0.202 -0.013,-0.217C-0.009,-0.232 -0.004,-0.246 0.003,-0.26C0.004,-0.263 0.005,-0.266 0.006,-0.267C0.006,-0.268 0.006,-0.27 0.005,-0.275C0.002,-0.274 0,-0.272 -0.001,-0.271C-0.002,-0.27 -0.004,-0.267 -0.005,-0.264C-0.008,-0.257 -0.012,-0.248 -0.017,-0.238C-0.017,-0.243 -0.016,-0.247 -0.015,-0.25C-0.013,-0.253 -0.011,-0.257 -0.01,-0.26C-0.001,-0.279 0.008,-0.296 0.018,-0.311C0.029,-0.328 0.041,-0.343 0.055,-0.357C0.07,-0.373 0.085,-0.386 0.1,-0.395L0.11,-0.4C0.117,-0.403 0.121,-0.402 0.123,-0.398C0.124,-0.397 0.126,-0.396 0.128,-0.396C0.129,-0.396 0.131,-0.395 0.132,-0.394C0.133,-0.393 0.134,-0.391 0.135,-0.39C0.136,-0.389 0.137,-0.387 0.138,-0.386C0.141,-0.385 0.145,-0.383 0.15,-0.382C0.155,-0.38 0.161,-0.378 0.167,-0.376C0.173,-0.374 0.179,-0.372 0.184,-0.37C0.189,-0.368 0.193,-0.366 0.195,-0.365C0.197,-0.364 0.199,-0.36 0.202,-0.355C0.205,-0.35 0.207,-0.346 0.21,-0.342C0.212,-0.337 0.215,-0.333 0.218,-0.33C0.219,-0.329 0.22,-0.327 0.221,-0.326C0.221,-0.324 0.221,-0.322 0.222,-0.321C0.223,-0.315 0.224,-0.309 0.224,-0.304C0.224,-0.298 0.223,-0.292 0.222,-0.285C0.221,-0.278 0.219,-0.271 0.216,-0.265C0.213,-0.258 0.21,-0.252 0.207,-0.246C0.205,-0.243 0.203,-0.239 0.201,-0.236C0.199,-0.233 0.197,-0.229 0.196,-0.225C0.195,-0.222 0.193,-0.218 0.192,-0.215C0.19,-0.212 0.188,-0.208 0.186,-0.205C0.182,-0.197 0.176,-0.192 0.168,-0.19C0.162,-0.187 0.156,-0.186 0.149,-0.187C0.148,-0.188 0.146,-0.188 0.145,-0.188C0.144,-0.188 0.142,-0.189 0.141,-0.191C0.14,-0.192 0.14,-0.192 0.14,-0.192C0.136,-0.191 0.133,-0.193 0.13,-0.196C0.127,-0.199 0.124,-0.202 0.121,-0.203C0.12,-0.204 0.119,-0.206 0.119,-0.208C0.12,-0.21 0.121,-0.212 0.12,-0.213L0.112,-0.23C0.11,-0.234 0.108,-0.238 0.105,-0.242C0.104,-0.246 0.101,-0.246 0.098,-0.243ZM0.152,-0.314C0.147,-0.31 0.142,-0.305 0.138,-0.299C0.133,-0.293 0.129,-0.287 0.124,-0.282L0.117,-0.271C0.113,-0.264 0.114,-0.259 0.119,-0.256C0.12,-0.255 0.122,-0.254 0.124,-0.253C0.125,-0.252 0.127,-0.25 0.128,-0.249C0.131,-0.246 0.135,-0.244 0.139,-0.244C0.142,-0.243 0.146,-0.243 0.15,-0.244C0.153,-0.245 0.156,-0.247 0.159,-0.251C0.162,-0.254 0.164,-0.257 0.166,-0.26C0.169,-0.269 0.172,-0.275 0.175,-0.279C0.177,-0.282 0.18,-0.288 0.183,-0.297C0.187,-0.306 0.188,-0.313 0.187,-0.317C0.186,-0.321 0.183,-0.323 0.179,-0.324C0.175,-0.325 0.171,-0.324 0.166,-0.322C0.161,-0.319 0.156,-0.317 0.152,-0.314ZM0,-0.139C-0.001,-0.138 -0.002,-0.138 -0.002,-0.138L0.001,-0.13C0.001,-0.129 0.002,-0.127 0.003,-0.126C0.004,-0.125 0.003,-0.123 0.002,-0.121C0.001,-0.122 0,-0.123 0,-0.123C-0.003,-0.128 -0.005,-0.134 -0.006,-0.14C-0.007,-0.146 -0.008,-0.152 -0.009,-0.159L-0.009,-0.184C-0.008,-0.191 -0.007,-0.199 -0.005,-0.206C-0.004,-0.21 -0.003,-0.213 -0.003,-0.215L-0.003,-0.222C-0.006,-0.215 -0.008,-0.211 -0.009,-0.208L-0.012,-0.194C-0.014,-0.181 -0.014,-0.168 -0.014,-0.157C-0.012,-0.145 -0.009,-0.134 -0.004,-0.123L0.004,-0.112C0.005,-0.11 0.008,-0.109 0.011,-0.108L0.014,-0.108L0.006,-0.122C0.005,-0.125 0.004,-0.128 0.003,-0.131C0.002,-0.134 0.001,-0.136 0,-0.139ZM0,-0.205C-0.001,-0.204 -0.002,-0.203 -0.002,-0.202C-0.005,-0.194 -0.006,-0.186 -0.006,-0.179C-0.006,-0.171 -0.005,-0.163 -0.004,-0.156C-0.004,-0.156 -0.003,-0.155 -0.002,-0.154L0.002,-0.195C0.002,-0.198 0.001,-0.202 0,-0.205Z" style="fill:rgb(93,93,156);fill-rule:nonzero;"/>
            </g>
            <g transform="matrix(496.567,0,0,687.158,1301.48,570.647)">
                <path d="M0.358,-0.235C0.363,-0.234 0.369,-0.231 0.375,-0.225C0.374,-0.222 0.372,-0.216 0.369,-0.207C0.365,-0.198 0.362,-0.192 0.359,-0.19C0.358,-0.189 0.357,-0.189 0.356,-0.188C0.355,-0.187 0.354,-0.186 0.353,-0.185L0.342,-0.172C0.341,-0.171 0.339,-0.17 0.339,-0.169C0.338,-0.168 0.337,-0.166 0.336,-0.165C0.334,-0.16 0.33,-0.156 0.324,-0.153C0.321,-0.152 0.32,-0.15 0.319,-0.149L0.299,-0.13C0.294,-0.125 0.287,-0.122 0.28,-0.12C0.275,-0.119 0.271,-0.118 0.267,-0.118C0.263,-0.117 0.259,-0.116 0.255,-0.115C0.252,-0.114 0.248,-0.113 0.244,-0.113C0.24,-0.112 0.236,-0.111 0.232,-0.11L0.223,-0.11C0.217,-0.112 0.211,-0.114 0.206,-0.116C0.2,-0.117 0.194,-0.12 0.189,-0.124L0.184,-0.127C0.179,-0.129 0.175,-0.131 0.171,-0.134C0.167,-0.137 0.163,-0.14 0.16,-0.144C0.151,-0.139 0.144,-0.135 0.139,-0.131L0.128,-0.124C0.127,-0.123 0.126,-0.123 0.126,-0.123C0.123,-0.119 0.119,-0.116 0.116,-0.115C0.112,-0.114 0.108,-0.112 0.104,-0.111C0.089,-0.106 0.075,-0.107 0.063,-0.114L0.048,-0.121C0.019,-0.133 0.003,-0.155 0,-0.186C-0.002,-0.201 0.001,-0.216 0.008,-0.231C0.011,-0.238 0.015,-0.244 0.019,-0.251C0.022,-0.257 0.027,-0.263 0.032,-0.268C0.032,-0.269 0.033,-0.27 0.034,-0.271C0.041,-0.281 0.048,-0.291 0.056,-0.3C0.063,-0.309 0.071,-0.319 0.078,-0.328C0.089,-0.34 0.102,-0.35 0.116,-0.359C0.119,-0.36 0.122,-0.361 0.125,-0.361C0.128,-0.362 0.132,-0.362 0.135,-0.363L0.147,-0.363C0.15,-0.362 0.154,-0.361 0.158,-0.361C0.161,-0.36 0.165,-0.359 0.168,-0.358C0.171,-0.357 0.173,-0.356 0.174,-0.356C0.177,-0.355 0.179,-0.355 0.181,-0.355C0.182,-0.354 0.184,-0.353 0.185,-0.351C0.186,-0.35 0.187,-0.35 0.187,-0.35C0.19,-0.35 0.192,-0.349 0.194,-0.348C0.196,-0.346 0.198,-0.345 0.201,-0.345C0.203,-0.345 0.205,-0.344 0.206,-0.343C0.209,-0.34 0.213,-0.337 0.216,-0.334C0.219,-0.331 0.221,-0.328 0.223,-0.325L0.226,-0.317C0.228,-0.308 0.225,-0.302 0.217,-0.297C0.212,-0.295 0.208,-0.293 0.204,-0.29C0.2,-0.287 0.196,-0.284 0.192,-0.281L0.192,-0.28C0.187,-0.275 0.181,-0.269 0.175,-0.264C0.169,-0.259 0.164,-0.253 0.159,-0.246L0.147,-0.233C0.142,-0.228 0.138,-0.222 0.135,-0.217L0.113,-0.187C0.112,-0.186 0.11,-0.184 0.109,-0.181C0.103,-0.17 0.099,-0.159 0.097,-0.148L0.097,-0.144L0.101,-0.147C0.112,-0.158 0.123,-0.168 0.134,-0.176C0.141,-0.181 0.146,-0.187 0.149,-0.193L0.157,-0.202C0.16,-0.205 0.163,-0.209 0.166,-0.213C0.169,-0.216 0.171,-0.22 0.174,-0.224L0.195,-0.258C0.205,-0.259 0.212,-0.257 0.217,-0.251L0.223,-0.245C0.226,-0.24 0.229,-0.236 0.23,-0.231C0.231,-0.226 0.231,-0.221 0.232,-0.216C0.232,-0.215 0.231,-0.214 0.23,-0.211L0.216,-0.183C0.213,-0.176 0.212,-0.169 0.213,-0.162C0.215,-0.153 0.218,-0.144 0.222,-0.137C0.224,-0.134 0.227,-0.132 0.231,-0.132C0.234,-0.133 0.238,-0.133 0.242,-0.134C0.245,-0.135 0.249,-0.136 0.252,-0.137C0.255,-0.138 0.259,-0.14 0.262,-0.142C0.265,-0.143 0.268,-0.145 0.271,-0.147L0.293,-0.16L0.309,-0.174C0.316,-0.181 0.323,-0.191 0.332,-0.204C0.341,-0.217 0.348,-0.226 0.355,-0.233L0.358,-0.235Z" style="fill:rgb(93,93,156);fill-rule:nonzero;"/>
            </g>
            <g transform="matrix(496.567,0,0,687.158,1448.96,570.647)">
                <path d="M0.353,-0.24C0.352,-0.235 0.349,-0.228 0.344,-0.219C0.339,-0.21 0.334,-0.203 0.331,-0.2L0.313,-0.175C0.306,-0.164 0.3,-0.154 0.295,-0.144C0.295,-0.142 0.295,-0.141 0.294,-0.141C0.291,-0.136 0.287,-0.131 0.284,-0.126C0.281,-0.121 0.277,-0.117 0.274,-0.113L0.242,-0.079C0.231,-0.07 0.22,-0.061 0.208,-0.054C0.206,-0.053 0.203,-0.051 0.198,-0.049C0.193,-0.046 0.188,-0.044 0.183,-0.041C0.178,-0.038 0.173,-0.036 0.168,-0.034C0.163,-0.032 0.159,-0.031 0.157,-0.031L0.147,-0.031L0.117,-0.032C0.112,-0.032 0.108,-0.032 0.106,-0.031C0.099,-0.03 0.089,-0.031 0.077,-0.036C0.065,-0.04 0.056,-0.043 0.049,-0.046C0.034,-0.053 0.021,-0.06 0.01,-0.068C-0.009,-0.083 -0.019,-0.104 -0.022,-0.133C-0.024,-0.15 -0.024,-0.167 -0.022,-0.184C-0.021,-0.194 -0.019,-0.204 -0.016,-0.214L-0.008,-0.235C-0.005,-0.246 -0,-0.257 0.005,-0.266C0.01,-0.275 0.016,-0.285 0.021,-0.294L0.029,-0.306C0.033,-0.312 0.037,-0.318 0.041,-0.323C0.045,-0.328 0.05,-0.333 0.055,-0.337C0.061,-0.342 0.067,-0.347 0.073,-0.353C0.078,-0.358 0.084,-0.362 0.091,-0.367C0.098,-0.372 0.105,-0.374 0.112,-0.374C0.114,-0.374 0.117,-0.375 0.121,-0.376C0.13,-0.38 0.137,-0.382 0.144,-0.381C0.145,-0.38 0.145,-0.38 0.145,-0.381C0.156,-0.382 0.167,-0.378 0.178,-0.371C0.179,-0.371 0.179,-0.371 0.18,-0.371C0.18,-0.37 0.18,-0.37 0.181,-0.37C0.182,-0.37 0.183,-0.37 0.184,-0.371C0.187,-0.373 0.19,-0.373 0.192,-0.372C0.195,-0.369 0.197,-0.365 0.196,-0.361C0.195,-0.357 0.195,-0.353 0.197,-0.348C0.198,-0.347 0.198,-0.347 0.198,-0.346C0.197,-0.345 0.197,-0.345 0.198,-0.344L0.192,-0.335C0.193,-0.332 0.193,-0.329 0.194,-0.326C0.194,-0.323 0.195,-0.32 0.196,-0.317C0.198,-0.308 0.199,-0.298 0.199,-0.289C0.199,-0.282 0.199,-0.277 0.198,-0.274C0.195,-0.257 0.189,-0.24 0.181,-0.223C0.178,-0.216 0.173,-0.212 0.168,-0.211C0.167,-0.211 0.166,-0.211 0.165,-0.211C0.164,-0.21 0.163,-0.21 0.162,-0.21C0.159,-0.21 0.157,-0.211 0.156,-0.212C0.153,-0.215 0.151,-0.217 0.148,-0.219C0.145,-0.22 0.141,-0.222 0.138,-0.223L0.135,-0.225C0.132,-0.228 0.13,-0.231 0.131,-0.235L0.134,-0.249C0.137,-0.259 0.14,-0.269 0.143,-0.279C0.146,-0.288 0.149,-0.298 0.153,-0.307C0.153,-0.309 0.153,-0.311 0.154,-0.313L0.15,-0.31C0.147,-0.303 0.143,-0.297 0.139,-0.292C0.134,-0.287 0.13,-0.281 0.126,-0.276C0.118,-0.265 0.111,-0.253 0.105,-0.24L0.081,-0.19C0.077,-0.183 0.074,-0.175 0.071,-0.167C0.068,-0.158 0.066,-0.15 0.063,-0.141C0.062,-0.138 0.061,-0.136 0.061,-0.134C0.061,-0.131 0.061,-0.128 0.06,-0.125C0.059,-0.118 0.06,-0.111 0.063,-0.104L0.072,-0.084C0.073,-0.081 0.076,-0.077 0.08,-0.072C0.081,-0.071 0.084,-0.07 0.087,-0.07C0.09,-0.07 0.094,-0.071 0.098,-0.072C0.102,-0.073 0.106,-0.074 0.109,-0.075C0.112,-0.076 0.115,-0.077 0.117,-0.077C0.122,-0.078 0.129,-0.079 0.137,-0.082C0.145,-0.085 0.153,-0.088 0.162,-0.092C0.171,-0.095 0.179,-0.099 0.187,-0.104C0.194,-0.109 0.2,-0.113 0.205,-0.117C0.212,-0.124 0.222,-0.132 0.234,-0.141C0.245,-0.15 0.254,-0.158 0.261,-0.165L0.276,-0.183C0.281,-0.189 0.288,-0.196 0.299,-0.205C0.31,-0.214 0.317,-0.221 0.322,-0.228C0.325,-0.231 0.329,-0.235 0.335,-0.24C0.341,-0.244 0.345,-0.248 0.348,-0.251C0.349,-0.252 0.349,-0.252 0.35,-0.251C0.35,-0.249 0.35,-0.248 0.35,-0.246C0.35,-0.244 0.35,-0.242 0.351,-0.241C0.351,-0.24 0.352,-0.239 0.353,-0.24Z" style="fill:rgb(93,93,156);fill-rule:nonzero;"/>
            </g>
            <g transform="matrix(496.567,0,0,687.158,1582.54,570.647)">
                <path d="M0.158,-0.248C0.161,-0.252 0.166,-0.257 0.172,-0.262C0.178,-0.267 0.184,-0.273 0.191,-0.279C0.197,-0.285 0.203,-0.291 0.209,-0.297C0.215,-0.302 0.22,-0.307 0.223,-0.31C0.24,-0.325 0.257,-0.335 0.275,-0.338C0.293,-0.341 0.311,-0.337 0.328,-0.326C0.332,-0.32 0.334,-0.312 0.335,-0.302C0.335,-0.292 0.335,-0.282 0.334,-0.271C0.333,-0.26 0.331,-0.25 0.329,-0.24C0.326,-0.23 0.324,-0.222 0.323,-0.215C0.322,-0.209 0.319,-0.202 0.316,-0.193L0.294,-0.136C0.291,-0.127 0.288,-0.119 0.286,-0.114C0.284,-0.099 0.287,-0.09 0.295,-0.088C0.302,-0.086 0.311,-0.087 0.322,-0.092C0.333,-0.096 0.343,-0.102 0.354,-0.109C0.364,-0.116 0.371,-0.122 0.375,-0.125C0.375,-0.125 0.377,-0.126 0.381,-0.129L0.406,-0.147C0.41,-0.15 0.412,-0.151 0.412,-0.152C0.417,-0.159 0.423,-0.163 0.428,-0.165C0.433,-0.167 0.439,-0.172 0.444,-0.179C0.449,-0.185 0.453,-0.192 0.457,-0.2C0.46,-0.207 0.465,-0.214 0.471,-0.219C0.475,-0.222 0.478,-0.224 0.479,-0.224C0.48,-0.223 0.481,-0.222 0.481,-0.22C0.481,-0.218 0.48,-0.215 0.479,-0.212C0.477,-0.208 0.475,-0.204 0.473,-0.201C0.47,-0.196 0.467,-0.193 0.465,-0.19C0.462,-0.187 0.46,-0.184 0.459,-0.181C0.457,-0.178 0.455,-0.175 0.453,-0.172C0.451,-0.169 0.449,-0.165 0.446,-0.16C0.443,-0.156 0.44,-0.152 0.436,-0.147C0.431,-0.141 0.428,-0.136 0.427,-0.131C0.426,-0.127 0.422,-0.124 0.415,-0.121C0.408,-0.118 0.403,-0.114 0.4,-0.111C0.397,-0.107 0.394,-0.103 0.391,-0.099C0.388,-0.095 0.385,-0.091 0.382,-0.086C0.381,-0.085 0.378,-0.082 0.374,-0.079C0.37,-0.076 0.366,-0.072 0.362,-0.069C0.357,-0.065 0.353,-0.062 0.349,-0.059C0.345,-0.056 0.343,-0.054 0.342,-0.053C0.334,-0.045 0.323,-0.039 0.309,-0.036C0.295,-0.032 0.282,-0.032 0.269,-0.035C0.256,-0.038 0.246,-0.045 0.238,-0.057C0.229,-0.068 0.227,-0.086 0.23,-0.11C0.231,-0.119 0.235,-0.13 0.242,-0.144C0.248,-0.158 0.255,-0.172 0.262,-0.187C0.269,-0.202 0.276,-0.216 0.283,-0.23C0.29,-0.243 0.295,-0.254 0.298,-0.261C0.301,-0.267 0.303,-0.274 0.305,-0.281C0.306,-0.284 0.307,-0.286 0.307,-0.289L0.307,-0.298C0.302,-0.307 0.295,-0.313 0.287,-0.314C0.279,-0.315 0.271,-0.315 0.263,-0.312C0.255,-0.309 0.248,-0.304 0.241,-0.298C0.234,-0.291 0.229,-0.285 0.225,-0.279C0.224,-0.278 0.222,-0.276 0.22,-0.274C0.217,-0.272 0.215,-0.269 0.214,-0.266C0.211,-0.261 0.207,-0.255 0.202,-0.25L0.151,-0.187C0.148,-0.183 0.144,-0.179 0.141,-0.175C0.137,-0.171 0.133,-0.167 0.13,-0.162C0.128,-0.159 0.124,-0.151 0.118,-0.14C0.111,-0.129 0.105,-0.116 0.098,-0.103C0.091,-0.09 0.085,-0.077 0.08,-0.066C0.074,-0.055 0.07,-0.047 0.068,-0.044C0.065,-0.037 0.063,-0.031 0.062,-0.026C0.061,-0.023 0.061,-0.02 0.06,-0.018C0.059,-0.015 0.058,-0.012 0.057,-0.009L0.052,0.011C0.051,0.016 0.05,0.02 0.048,0.025C0.046,0.03 0.043,0.033 0.04,0.035C0.039,0.036 0.038,0.038 0.037,0.039C0.036,0.04 0.035,0.042 0.034,0.044L0.028,0.044C0.027,0.043 0.025,0.042 0.023,0.043C0.02,0.043 0.018,0.043 0.015,0.044C0.011,0.045 0.01,0.045 0.012,0.046C0.014,0.046 0.013,0.046 0.01,0.046C0.009,0.046 0.008,0.046 0.007,0.045C0.006,0.044 0.005,0.043 0.004,0.042C0.003,0.039 0.001,0.037 -0.002,0.035C-0.004,0.033 -0.006,0.031 -0.008,0.028C-0.016,0.021 -0.021,0.009 -0.022,-0.006C-0.03,-0.036 -0.032,-0.07 -0.028,-0.107C-0.024,-0.144 -0.017,-0.182 -0.008,-0.22C0.002,-0.258 0.013,-0.294 0.026,-0.329C0.038,-0.364 0.048,-0.394 0.056,-0.419C0.063,-0.434 0.071,-0.45 0.078,-0.465C0.085,-0.48 0.093,-0.495 0.102,-0.51C0.112,-0.529 0.122,-0.548 0.133,-0.566C0.144,-0.584 0.155,-0.601 0.167,-0.616C0.183,-0.638 0.199,-0.656 0.216,-0.669C0.227,-0.678 0.239,-0.679 0.253,-0.674C0.266,-0.668 0.279,-0.659 0.291,-0.647C0.303,-0.635 0.314,-0.622 0.323,-0.607C0.332,-0.592 0.338,-0.579 0.34,-0.569C0.343,-0.564 0.346,-0.558 0.347,-0.55C0.348,-0.542 0.347,-0.534 0.344,-0.527C0.342,-0.522 0.34,-0.522 0.339,-0.525C0.338,-0.528 0.335,-0.531 0.332,-0.532L0.324,-0.535L0.312,-0.539C0.307,-0.54 0.302,-0.538 0.297,-0.532L0.283,-0.517C0.276,-0.51 0.268,-0.501 0.259,-0.49C0.249,-0.478 0.242,-0.468 0.237,-0.459C0.234,-0.454 0.231,-0.449 0.228,-0.445C0.225,-0.441 0.221,-0.437 0.217,-0.434C0.216,-0.433 0.215,-0.431 0.214,-0.429C0.213,-0.426 0.211,-0.424 0.21,-0.423C0.206,-0.416 0.202,-0.409 0.198,-0.402C0.193,-0.395 0.189,-0.389 0.185,-0.382L0.166,-0.347C0.161,-0.338 0.156,-0.329 0.151,-0.32C0.146,-0.311 0.142,-0.302 0.137,-0.293C0.134,-0.284 0.13,-0.276 0.126,-0.268C0.122,-0.26 0.118,-0.252 0.115,-0.243C0.112,-0.236 0.11,-0.231 0.109,-0.227C0.107,-0.223 0.105,-0.219 0.104,-0.216C0.103,-0.212 0.101,-0.208 0.101,-0.204C0.099,-0.199 0.098,-0.194 0.097,-0.187C0.097,-0.18 0.1,-0.179 0.106,-0.184C0.111,-0.188 0.118,-0.194 0.125,-0.203C0.132,-0.212 0.139,-0.221 0.146,-0.23C0.153,-0.239 0.157,-0.245 0.158,-0.248Z" style="fill:rgb(93,93,156);fill-rule:nonzero;"/>
            </g>
            <g transform="matrix(496.567,0,0,687.158,1787.12,570.647)">
                <path d="M0.358,-0.235C0.363,-0.234 0.369,-0.231 0.375,-0.225C0.374,-0.222 0.372,-0.216 0.369,-0.207C0.365,-0.198 0.362,-0.192 0.359,-0.19C0.358,-0.189 0.357,-0.189 0.356,-0.188C0.355,-0.187 0.354,-0.186 0.353,-0.185L0.342,-0.172C0.341,-0.171 0.339,-0.17 0.339,-0.169C0.338,-0.168 0.337,-0.166 0.336,-0.165C0.334,-0.16 0.33,-0.156 0.324,-0.153C0.321,-0.152 0.32,-0.15 0.319,-0.149L0.299,-0.13C0.294,-0.125 0.287,-0.122 0.28,-0.12C0.275,-0.119 0.271,-0.118 0.267,-0.118C0.263,-0.117 0.259,-0.116 0.255,-0.115C0.252,-0.114 0.248,-0.113 0.244,-0.113C0.24,-0.112 0.236,-0.111 0.232,-0.11L0.223,-0.11C0.217,-0.112 0.211,-0.114 0.206,-0.116C0.2,-0.117 0.194,-0.12 0.189,-0.124L0.184,-0.127C0.179,-0.129 0.175,-0.131 0.171,-0.134C0.167,-0.137 0.163,-0.14 0.16,-0.144C0.151,-0.139 0.144,-0.135 0.139,-0.131L0.128,-0.124C0.127,-0.123 0.126,-0.123 0.126,-0.123C0.123,-0.119 0.119,-0.116 0.116,-0.115C0.112,-0.114 0.108,-0.112 0.104,-0.111C0.089,-0.106 0.075,-0.107 0.063,-0.114L0.048,-0.121C0.019,-0.133 0.003,-0.155 0,-0.186C-0.002,-0.201 0.001,-0.216 0.008,-0.231C0.011,-0.238 0.015,-0.244 0.019,-0.251C0.022,-0.257 0.027,-0.263 0.032,-0.268C0.032,-0.269 0.033,-0.27 0.034,-0.271C0.041,-0.281 0.048,-0.291 0.056,-0.3C0.063,-0.309 0.071,-0.319 0.078,-0.328C0.089,-0.34 0.102,-0.35 0.116,-0.359C0.119,-0.36 0.122,-0.361 0.125,-0.361C0.128,-0.362 0.132,-0.362 0.135,-0.363L0.147,-0.363C0.15,-0.362 0.154,-0.361 0.158,-0.361C0.161,-0.36 0.165,-0.359 0.168,-0.358C0.171,-0.357 0.173,-0.356 0.174,-0.356C0.177,-0.355 0.179,-0.355 0.181,-0.355C0.182,-0.354 0.184,-0.353 0.185,-0.351C0.186,-0.35 0.187,-0.35 0.187,-0.35C0.19,-0.35 0.192,-0.349 0.194,-0.348C0.196,-0.346 0.198,-0.345 0.201,-0.345C0.203,-0.345 0.205,-0.344 0.206,-0.343C0.209,-0.34 0.213,-0.337 0.216,-0.334C0.219,-0.331 0.221,-0.328 0.223,-0.325L0.226,-0.317C0.228,-0.308 0.225,-0.302 0.217,-0.297C0.212,-0.295 0.208,-0.293 0.204,-0.29C0.2,-0.287 0.196,-0.284 0.192,-0.281L0.192,-0.28C0.187,-0.275 0.181,-0.269 0.175,-0.264C0.169,-0.259 0.164,-0.253 0.159,-0.246L0.147,-0.233C0.142,-0.228 0.138,-0.222 0.135,-0.217L0.113,-0.187C0.112,-0.186 0.11,-0.184 0.109,-0.181C0.103,-0.17 0.099,-0.159 0.097,-0.148L0.097,-0.144L0.101,-0.147C0.112,-0.158 0.123,-0.168 0.134,-0.176C0.141,-0.181 0.146,-0.187 0.149,-0.193L0.157,-0.202C0.16,-0.205 0.163,-0.209 0.166,-0.213C0.169,-0.216 0.171,-0.22 0.174,-0.224L0.195,-0.258C0.205,-0.259 0.212,-0.257 0.217,-0.251L0.223,-0.245C0.226,-0.24 0.229,-0.236 0.23,-0.231C0.231,-0.226 0.231,-0.221 0.232,-0.216C0.232,-0.215 0.231,-0.214 0.23,-0.211L0.216,-0.183C0.213,-0.176 0.212,-0.169 0.213,-0.162C0.215,-0.153 0.218,-0.144 0.222,-0.137C0.224,-0.134 0.227,-0.132 0.231,-0.132C0.234,-0.133 0.238,-0.133 0.242,-0.134C0.245,-0.135 0.249,-0.136 0.252,-0.137C0.255,-0.138 0.259,-0.14 0.262,-0.142C0.265,-0.143 0.268,-0.145 0.271,-0.147L0.293,-0.16L0.309,-0.174C0.316,-0.181 0.323,-0.191 0.332,-0.204C0.341,-0.217 0.348,-0.226 0.355,-0.233L0.358,-0.235Z" style="fill:rgb(93,93,156);fill-rule:nonzero;"/>
            </g>
            <g transform="matrix(496.567,0,0,687.158,1934.6,570.647)">
                <path d="M0.183,-0.18C0.182,-0.18 0.182,-0.18 0.181,-0.181C0.18,-0.182 0.18,-0.182 0.179,-0.182C0.177,-0.184 0.175,-0.183 0.174,-0.18C0.173,-0.18 0.173,-0.179 0.173,-0.178C0.168,-0.167 0.162,-0.162 0.155,-0.164C0.152,-0.161 0.15,-0.159 0.149,-0.157C0.148,-0.154 0.146,-0.152 0.144,-0.15C0.142,-0.149 0.14,-0.147 0.138,-0.145C0.136,-0.143 0.135,-0.14 0.134,-0.137C0.134,-0.136 0.133,-0.135 0.132,-0.132C0.129,-0.129 0.127,-0.126 0.125,-0.123C0.122,-0.12 0.12,-0.117 0.118,-0.114C0.116,-0.109 0.113,-0.105 0.11,-0.102C0.107,-0.098 0.103,-0.095 0.1,-0.092C0.099,-0.09 0.097,-0.088 0.095,-0.086C0.092,-0.084 0.09,-0.081 0.089,-0.078C0.089,-0.075 0.087,-0.074 0.084,-0.074C0.081,-0.073 0.079,-0.072 0.077,-0.071C0.074,-0.069 0.072,-0.067 0.069,-0.065C0.064,-0.062 0.058,-0.059 0.053,-0.057C0.047,-0.055 0.041,-0.054 0.035,-0.053C0.03,-0.053 0.024,-0.053 0.02,-0.054C0.014,-0.055 0.009,-0.056 0.004,-0.059C-0.004,-0.064 -0.01,-0.07 -0.013,-0.078C-0.016,-0.086 -0.019,-0.096 -0.02,-0.107C-0.02,-0.114 -0.019,-0.119 -0.018,-0.122C-0.017,-0.137 -0.015,-0.153 -0.012,-0.169C-0.009,-0.184 -0.006,-0.2 -0.002,-0.215C0.001,-0.224 0.003,-0.232 0.006,-0.24C0.009,-0.247 0.012,-0.255 0.015,-0.262C0.022,-0.275 0.028,-0.289 0.034,-0.304C0.039,-0.318 0.045,-0.332 0.052,-0.345C0.052,-0.346 0.052,-0.347 0.053,-0.349C0.053,-0.35 0.053,-0.351 0.054,-0.352C0.057,-0.363 0.062,-0.375 0.067,-0.386C0.072,-0.397 0.078,-0.407 0.084,-0.418C0.086,-0.421 0.088,-0.424 0.089,-0.428C0.09,-0.431 0.092,-0.434 0.094,-0.438C0.1,-0.439 0.105,-0.438 0.108,-0.435C0.113,-0.432 0.119,-0.428 0.125,-0.424C0.13,-0.42 0.136,-0.416 0.142,-0.413C0.145,-0.411 0.147,-0.409 0.147,-0.408C0.15,-0.401 0.154,-0.393 0.158,-0.386C0.162,-0.379 0.165,-0.371 0.167,-0.362L0.172,-0.333C0.174,-0.321 0.173,-0.31 0.168,-0.3L0.158,-0.275L0.154,-0.26C0.151,-0.25 0.148,-0.24 0.145,-0.23C0.141,-0.22 0.138,-0.21 0.133,-0.2C0.132,-0.199 0.132,-0.199 0.132,-0.198L0.132,-0.197C0.132,-0.197 0.131,-0.196 0.13,-0.195C0.129,-0.186 0.126,-0.179 0.123,-0.172C0.124,-0.173 0.125,-0.173 0.126,-0.173C0.127,-0.173 0.127,-0.173 0.128,-0.174L0.159,-0.21C0.168,-0.22 0.177,-0.23 0.185,-0.24C0.193,-0.25 0.201,-0.26 0.21,-0.27C0.213,-0.274 0.217,-0.278 0.22,-0.281C0.223,-0.284 0.226,-0.288 0.229,-0.293C0.238,-0.306 0.248,-0.319 0.259,-0.331C0.269,-0.342 0.279,-0.354 0.29,-0.365C0.294,-0.369 0.298,-0.372 0.301,-0.373C0.31,-0.377 0.318,-0.378 0.326,-0.377C0.328,-0.376 0.33,-0.375 0.331,-0.375C0.332,-0.374 0.334,-0.373 0.335,-0.372C0.339,-0.368 0.343,-0.364 0.347,-0.36C0.35,-0.355 0.354,-0.351 0.358,-0.348C0.362,-0.345 0.366,-0.339 0.369,-0.33C0.37,-0.327 0.371,-0.323 0.372,-0.32C0.373,-0.317 0.373,-0.313 0.374,-0.309C0.376,-0.298 0.376,-0.288 0.373,-0.278C0.37,-0.267 0.366,-0.256 0.363,-0.245C0.36,-0.234 0.356,-0.224 0.351,-0.213C0.35,-0.208 0.348,-0.204 0.347,-0.199C0.346,-0.194 0.344,-0.189 0.343,-0.184C0.346,-0.185 0.348,-0.186 0.35,-0.188C0.36,-0.193 0.37,-0.2 0.379,-0.208C0.388,-0.215 0.396,-0.224 0.405,-0.233C0.413,-0.24 0.421,-0.247 0.43,-0.254C0.438,-0.261 0.447,-0.267 0.456,-0.272C0.458,-0.273 0.461,-0.275 0.464,-0.278C0.469,-0.283 0.474,-0.283 0.479,-0.278C0.482,-0.276 0.484,-0.274 0.486,-0.271C0.487,-0.268 0.49,-0.265 0.493,-0.264C0.496,-0.263 0.498,-0.261 0.5,-0.259C0.501,-0.257 0.503,-0.255 0.505,-0.252C0.504,-0.243 0.504,-0.235 0.505,-0.227C0.505,-0.221 0.503,-0.214 0.5,-0.205C0.497,-0.204 0.495,-0.201 0.496,-0.198C0.497,-0.195 0.496,-0.192 0.494,-0.189C0.493,-0.183 0.493,-0.177 0.492,-0.171C0.491,-0.165 0.49,-0.159 0.489,-0.154C0.488,-0.143 0.488,-0.133 0.489,-0.122C0.489,-0.116 0.491,-0.112 0.496,-0.11C0.5,-0.109 0.506,-0.111 0.513,-0.115C0.52,-0.118 0.528,-0.123 0.536,-0.128C0.544,-0.133 0.552,-0.138 0.559,-0.144C0.566,-0.149 0.57,-0.154 0.573,-0.157C0.582,-0.167 0.591,-0.178 0.598,-0.189C0.605,-0.2 0.613,-0.212 0.62,-0.224C0.621,-0.23 0.623,-0.234 0.626,-0.237C0.627,-0.234 0.628,-0.233 0.628,-0.233C0.627,-0.229 0.627,-0.227 0.627,-0.226C0.627,-0.225 0.627,-0.224 0.628,-0.223C0.628,-0.222 0.628,-0.22 0.629,-0.219C0.629,-0.217 0.629,-0.214 0.628,-0.21C0.628,-0.211 0.628,-0.21 0.627,-0.209C0.626,-0.208 0.626,-0.206 0.625,-0.204C0.624,-0.201 0.624,-0.199 0.623,-0.197C0.622,-0.195 0.621,-0.194 0.62,-0.195C0.619,-0.195 0.618,-0.195 0.618,-0.194C0.618,-0.193 0.617,-0.191 0.616,-0.19C0.613,-0.185 0.61,-0.179 0.607,-0.174C0.604,-0.169 0.602,-0.163 0.599,-0.157C0.599,-0.155 0.599,-0.153 0.598,-0.152C0.596,-0.151 0.596,-0.149 0.595,-0.148C0.59,-0.145 0.586,-0.141 0.583,-0.138C0.58,-0.135 0.576,-0.131 0.573,-0.128C0.573,-0.126 0.571,-0.124 0.568,-0.123C0.567,-0.12 0.564,-0.117 0.559,-0.112C0.554,-0.107 0.548,-0.103 0.542,-0.099C0.535,-0.094 0.529,-0.09 0.523,-0.087C0.517,-0.084 0.513,-0.082 0.51,-0.082C0.507,-0.082 0.502,-0.083 0.493,-0.084C0.484,-0.085 0.479,-0.086 0.476,-0.088C0.471,-0.093 0.465,-0.098 0.459,-0.103C0.452,-0.108 0.447,-0.115 0.444,-0.122C0.439,-0.134 0.439,-0.148 0.443,-0.164C0.446,-0.177 0.448,-0.189 0.452,-0.201C0.455,-0.213 0.458,-0.225 0.463,-0.237C0.464,-0.241 0.465,-0.244 0.465,-0.247C0.466,-0.248 0.466,-0.249 0.466,-0.25C0.465,-0.251 0.465,-0.252 0.465,-0.253C0.462,-0.252 0.459,-0.251 0.457,-0.249C0.455,-0.246 0.453,-0.245 0.45,-0.244C0.443,-0.241 0.439,-0.239 0.436,-0.237C0.435,-0.232 0.435,-0.228 0.435,-0.227C0.434,-0.226 0.432,-0.223 0.429,-0.218C0.427,-0.216 0.425,-0.214 0.424,-0.212C0.423,-0.209 0.421,-0.207 0.419,-0.204C0.415,-0.206 0.41,-0.205 0.404,-0.2L0.38,-0.18C0.379,-0.179 0.378,-0.178 0.377,-0.177C0.376,-0.176 0.374,-0.175 0.373,-0.173C0.368,-0.168 0.363,-0.163 0.358,-0.159C0.353,-0.154 0.347,-0.15 0.341,-0.145C0.34,-0.144 0.34,-0.143 0.339,-0.143C0.338,-0.142 0.337,-0.141 0.336,-0.14C0.333,-0.134 0.329,-0.129 0.324,-0.126C0.319,-0.122 0.314,-0.117 0.309,-0.112C0.308,-0.11 0.306,-0.108 0.305,-0.106C0.303,-0.104 0.301,-0.102 0.299,-0.1C0.283,-0.087 0.266,-0.082 0.248,-0.084C0.241,-0.085 0.234,-0.089 0.227,-0.097C0.22,-0.104 0.217,-0.114 0.218,-0.127C0.218,-0.137 0.22,-0.148 0.224,-0.159C0.232,-0.184 0.242,-0.208 0.254,-0.23C0.265,-0.252 0.278,-0.274 0.293,-0.295C0.296,-0.302 0.3,-0.308 0.305,-0.314C0.309,-0.32 0.313,-0.327 0.316,-0.334C0.321,-0.339 0.322,-0.344 0.321,-0.349C0.318,-0.352 0.314,-0.352 0.31,-0.348C0.309,-0.346 0.306,-0.343 0.301,-0.34C0.296,-0.335 0.291,-0.33 0.286,-0.325C0.281,-0.32 0.276,-0.316 0.271,-0.312C0.268,-0.309 0.265,-0.305 0.263,-0.302C0.26,-0.299 0.258,-0.295 0.256,-0.29C0.251,-0.278 0.244,-0.268 0.237,-0.259C0.232,-0.254 0.228,-0.25 0.225,-0.246C0.221,-0.242 0.217,-0.237 0.214,-0.232C0.211,-0.228 0.208,-0.224 0.206,-0.22C0.204,-0.215 0.202,-0.211 0.199,-0.207L0.19,-0.19L0.183,-0.18Z" style="fill:rgb(93,93,156);fill-rule:nonzero;"/>
            </g>
        </g>
    </g>
</svg>
